<svg width="47" height="30" viewBox="0 0 47 30" fill="none" xmlns="http://www.w3.org/2000/svg">
<path d="M3.96836 10.036L2.40836 10L0.212359 0.483999H1.70036L3.56036 8.692H4.16036C4.25636 8.692 4.30836 8.636 4.31636 8.524L6.30836 0.483999H7.72436L5.67236 8.476C5.56836 8.9 5.46036 9.228 5.34836 9.46C5.23636 9.684 5.07636 9.836 4.86836 9.916C4.66036 9.996 4.36036 10.036 3.96836 10.036ZM8.79761 1.348V0.00399923H10.2616V1.348H8.79761ZM8.79761 10V2.656H10.2616V10H8.79761ZM13.9369 10.108C13.2089 10.108 12.6849 9.972 12.3649 9.7C12.0449 9.42 11.8849 8.948 11.8849 8.284V4.372C11.8849 3.708 12.0449 3.24 12.3649 2.968C12.6849 2.688 13.2089 2.548 13.9369 2.548H16.1929V3.76H13.5169C13.4049 3.76 13.3489 3.816 13.3489 3.928V8.728C13.3489 8.84 13.4049 8.896 13.5169 8.896H16.1929V10.108H13.9369ZM19.1875 10.084C18.4595 10.084 17.9315 9.944 17.6035 9.664C17.2835 9.384 17.1235 8.912 17.1235 8.248V4.3C17.1235 3.636 17.2635 3.18 17.5435 2.932C17.8235 2.676 18.3035 2.548 18.9835 2.548H20.4595C21.1475 2.548 21.6355 2.676 21.9235 2.932C22.2195 3.18 22.3675 3.636 22.3675 4.3V7.168H18.5875V8.704C18.5875 8.808 18.6395 8.86 18.7435 8.86H22.1755V10.084H19.1875ZM18.7435 3.724C18.6395 3.724 18.5875 3.78 18.5875 3.892V6.112H20.9155V3.892C20.9155 3.78 20.8635 3.724 20.7595 3.724H18.7435ZM32.0196 10H28.7916C28.0636 10 27.5236 9.848 27.1716 9.544C26.8196 9.232 26.6436 8.748 26.6436 8.092V2.404C26.6436 1.74 26.8196 1.256 27.1716 0.952C27.5236 0.64 28.0636 0.483999 28.7916 0.483999H32.0196V1.84H28.3476C28.2356 1.84 28.1796 1.896 28.1796 2.008V8.488C28.1796 8.592 28.2356 8.644 28.3476 8.644H32.0196V10ZM33.2429 1.348V0.00399923H34.7069V1.348H33.2429ZM33.2429 10V2.656H34.7069V10H33.2429ZM40.0262 3.796H38.3102V8.62C38.3102 8.724 38.3622 8.776 38.4662 8.776H40.0262V10H38.9102C38.1902 10 37.6662 9.86 37.3382 9.58C37.0182 9.3 36.8582 8.832 36.8582 8.176V3.796H35.9942V2.656H36.8582V0.784H38.3102V2.656H40.0262V3.796ZM44.6596 11.572V9.34C44.4916 9.852 44.0636 10.108 43.3756 10.108H42.5236C41.9236 10.108 41.4836 9.992 41.2036 9.76C40.9236 9.52 40.7836 9.096 40.7836 8.488V2.656H42.2356V8.764C42.2356 8.876 42.2916 8.932 42.4036 8.932H44.6596L44.6476 2.656H46.0996L46.1116 11.128C46.1116 11.792 45.9476 12.264 45.6196 12.544C45.2996 12.824 44.7796 12.964 44.0596 12.964H41.0236V11.74H44.5036C44.6076 11.74 44.6596 11.684 44.6596 11.572ZM8.73213 23.54C9.47613 23.54 10.0441 23.712 10.4361 24.056C10.8281 24.392 11.0241 24.892 11.0241 25.556V27.02C11.0241 27.7 10.8321 28.216 10.4481 28.568C10.0721 28.912 9.51213 29.076 8.76813 29.06L5.09613 29V27.692H9.28413C9.41213 27.692 9.47613 27.628 9.47613 27.5V25.1C9.47613 24.972 9.41213 24.908 9.28413 24.908H7.14813C6.40413 24.908 5.84013 24.744 5.45613 24.416C5.08013 24.088 4.89213 23.584 4.89213 22.904V21.488C4.89213 20.824 5.08813 20.312 5.48013 19.952C5.87213 19.584 6.44013 19.408 7.18413 19.424L10.6761 19.484V20.792H6.63213C6.50413 20.792 6.44013 20.86 6.44013 20.996V23.348C6.44013 23.476 6.50413 23.54 6.63213 23.54H8.73213ZM15.9266 22.796H14.2106V27.62C14.2106 27.724 14.2626 27.776 14.3666 27.776H15.9266V29H14.8106C14.0906 29 13.5666 28.86 13.2386 28.58C12.9186 28.3 12.7586 27.832 12.7586 27.176V22.796H11.8946V21.656H12.7586V19.784H14.2106V21.656H15.9266V22.796ZM16.672 23.372C16.672 22.708 16.832 22.24 17.152 21.968C17.472 21.688 17.996 21.548 18.724 21.548H20.032C20.768 21.548 21.296 21.688 21.616 21.968C21.936 22.24 22.096 22.708 22.096 23.372V27.284C22.096 27.948 21.936 28.42 21.616 28.7C21.296 28.972 20.768 29.108 20.032 29.108H18.724C17.996 29.108 17.472 28.972 17.152 28.7C16.832 28.42 16.672 27.948 16.672 27.284V23.372ZM18.304 22.76C18.192 22.76 18.136 22.816 18.136 22.928V27.728C18.136 27.84 18.192 27.896 18.304 27.896H20.476C20.58 27.896 20.632 27.84 20.632 27.728V22.928C20.632 22.816 20.58 22.76 20.476 22.76H18.304ZM27.0214 21.548V22.724H25.2094C25.0974 22.724 25.0414 22.78 25.0414 22.892L25.0534 29H23.6134L23.5894 21.656H24.8854L24.9934 22.4C25.1534 21.832 25.5974 21.548 26.3254 21.548H27.0214ZM27.9519 20.348V19.004H29.4159V20.348H27.9519ZM27.9519 29V21.656H29.4159V29H27.9519ZM33.1152 29.084C32.3872 29.084 31.8592 28.944 31.5312 28.664C31.2112 28.384 31.0512 27.912 31.0512 27.248V23.3C31.0512 22.636 31.1912 22.18 31.4712 21.932C31.7512 21.676 32.2312 21.548 32.9112 21.548H34.3872C35.0752 21.548 35.5632 21.676 35.8512 21.932C36.1472 22.18 36.2952 22.636 36.2952 23.3V26.168H32.5152V27.704C32.5152 27.808 32.5672 27.86 32.6712 27.86H36.1032V29.084H33.1152ZM32.6712 22.724C32.5672 22.724 32.5152 22.78 32.5152 22.892V25.112H34.8432V22.892C34.8432 22.78 34.7912 22.724 34.6872 22.724H32.6712ZM37.4948 29.036L37.4828 27.86H40.7228C40.8348 27.86 40.8908 27.808 40.8908 27.704V26.012C40.8908 25.9 40.8348 25.844 40.7228 25.844H39.2708C38.5828 25.844 38.0908 25.72 37.7948 25.472C37.5068 25.216 37.3628 24.768 37.3628 24.128V23.336C37.3628 22.672 37.5148 22.208 37.8188 21.944C38.1308 21.672 38.6268 21.54 39.3068 21.548H41.9468V22.772L38.9948 22.76C38.8908 22.76 38.8388 22.816 38.8388 22.928V24.536C38.8388 24.648 38.8908 24.704 38.9948 24.704H40.4348C41.1228 24.704 41.6108 24.828 41.8988 25.076C42.1868 25.316 42.3308 25.76 42.3308 26.408V27.416C42.3308 28.024 42.1908 28.448 41.9108 28.688C41.6388 28.92 41.1988 29.036 40.5908 29.036H37.4948Z" fill="white"/>
</svg>
